<svg xmlns="http://www.w3.org/2000/svg" height="1024" preserveAspectRatio="none" style="display: block;" version="1.1" viewBox="0 0 2048 2048" width="1024">
<defs>
	<linearGradient gradientUnits="userSpaceOnUse" id="Gradient1" x1="806.779" x2="773.091" y1="1006.15" y2="1028.64">
		<stop class="stop0" offset="0" stop-color="rgb(15,75,92)" stop-opacity="1"></stop>
		<stop class="stop1" offset="1" stop-color="rgb(13,137,132)" stop-opacity="1"></stop>
	</linearGradient>
	<linearGradient gradientUnits="userSpaceOnUse" id="Gradient2" x1="631.852" x2="626.079" y1="437.229" y2="403.528">
		<stop class="stop0" offset="0" stop-color="rgb(47,92,113)" stop-opacity="1"></stop>
		<stop class="stop1" offset="1" stop-color="rgb(47,115,132)" stop-opacity="1"></stop>
	</linearGradient>
	<linearGradient gradientUnits="userSpaceOnUse" id="Gradient3" x1="456.789" x2="528.583" y1="1034.81" y2="1110.04">
		<stop class="stop0" offset="0" stop-color="rgb(10,82,94)" stop-opacity="1"></stop>
		<stop class="stop1" offset="1" stop-color="rgb(8,159,132)" stop-opacity="1"></stop>
	</linearGradient>
	<linearGradient gradientUnits="userSpaceOnUse" id="Gradient4" x1="742.142" x2="703.807" y1="972.264" y2="1022.7">
		<stop class="stop0" offset="0" stop-color="rgb(53,143,240)" stop-opacity="1"></stop>
		<stop class="stop1" offset="1" stop-color="rgb(46,204,246)" stop-opacity="1"></stop>
	</linearGradient>
	<linearGradient gradientUnits="userSpaceOnUse" id="Gradient5" x1="1410.56" x2="1411.42" y1="606.137" y2="735.791">
		<stop class="stop0" offset="0" stop-color="rgb(34,116,131)" stop-opacity="1"></stop>
		<stop class="stop1" offset="1" stop-color="rgb(35,103,135)" stop-opacity="1"></stop>
	</linearGradient>
	<linearGradient gradientUnits="userSpaceOnUse" id="Gradient6" x1="842.802" x2="891.888" y1="1107.43" y2="1037.55">
		<stop class="stop0" offset="0" stop-color="rgb(47,186,240)" stop-opacity="1"></stop>
		<stop class="stop1" offset="1" stop-color="rgb(112,35,245)" stop-opacity="1"></stop>
	</linearGradient>
	<linearGradient gradientUnits="userSpaceOnUse" id="Gradient7" x1="1376.54" x2="842.655" y1="1217.12" y2="1308.45">
		<stop class="stop0" offset="0" stop-color="rgb(25,0,51)" stop-opacity="1"></stop>
		<stop class="stop1" offset="1" stop-color="rgb(19,39,70)" stop-opacity="1"></stop>
	</linearGradient>
	<linearGradient gradientUnits="userSpaceOnUse" id="Gradient8" x1="491.443" x2="494.645" y1="1431.89" y2="1399.22">
		<stop class="stop0" offset="0" stop-color="rgb(22,120,166)" stop-opacity="1"></stop>
		<stop class="stop1" offset="1" stop-color="rgb(16,208,186)" stop-opacity="1"></stop>
	</linearGradient>
</defs>
<path d="M 0 0 L 2048 0 L 2048 2048 L 0 2048 L 0 0 z" fill="rgb(21,18,51)" transform="translate(0,0)"></path>
<path d="M 1355.55 754.936 C 1357.93 755.076 1361.75 755.152 1363.96 755.615 C 1392.75 757.898 1444.17 756.256 1474.71 756.106 C 1477.76 755.75 1480.17 755.341 1483.25 755.542 C 1477.61 769.318 1468.2 785.963 1461.14 799.397 L 1428.71 861.991 L 1314.59 1082.55 C 1399.62 1147.67 1457.79 1214.15 1492.85 1317.48 C 1501.87 1344.05 1509.78 1369.59 1513.63 1397.61 C 1513.99 1400.07 1514.18 1402.56 1514.21 1405.05 C 1538.72 1404.81 1560.7 1405.09 1581.66 1419.38 C 1659.25 1472.25 1622.28 1589.22 1528.19 1588.09 C 1519.76 1587.99 1510.71 1588.1 1502.26 1588.08 L 1439.08 1587.96 L 1215.53 1588.09 L 526.832 1588.01 C 497.22 1587.73 474.221 1582.05 452.764 1559.94 C 436.065 1542.62 426.913 1519.38 427.313 1495.32 C 427.492 1485.32 431.442 1462.64 437.519 1455.14 C 440.633 1448.06 444.993 1441.25 449.639 1435.07 L 449.651 1432.48 C 451.855 1430.38 453.281 1429.37 454.46 1426.54 C 443.376 1402.75 424.701 1374.24 404.387 1358.04 C 385.276 1342.8 394.584 1353.41 378.857 1358.97 C 377.575 1359.42 377.027 1358.27 375.901 1357.1 C 370.111 1356.03 368.539 1349.68 365.817 1345.42 C 357.849 1332.98 365.681 1332.49 365.327 1322.04 C 369.096 1320.07 369.854 1319.58 373.19 1316.93 C 372.466 1309.46 368.816 1300.25 367.372 1292.38 C 366.075 1289.18 366.287 1288.17 363.913 1285.9 C 364.799 1285.64 364.207 1285.89 365.292 1284.55 C 364.892 1280.22 364.823 1280.26 363.208 1276.16 C 362.311 1268.04 360.563 1261.41 359.946 1252.55 C 360.282 1249.11 360.344 1245.17 360.487 1241.67 L 361.096 1243.07 C 363.448 1237.57 364.565 1223.94 365.012 1217.63 C 366.934 1190.5 373.147 1175.31 385.254 1151.77 C 399.882 1123.33 414.31 1112.26 442.428 1097.63 C 452.132 1092.59 462.462 1083.82 472.646 1078.8 C 467.408 1086.42 461.407 1093.07 456.851 1100.81 L 458.26 1101.21 C 484.883 1063.35 505.665 1047.06 544.059 1023.47 C 547.847 1022.46 563.238 1014.36 569.197 1012.21 C 600.918 1000.73 627.45 997.439 660.703 998.041 C 663.086 998.389 665.183 998.679 667.579 998.908 C 690.957 1001 716.286 1007.08 737.928 1016.27 C 745.138 1019.33 759.731 1027.45 765.294 1029.49 C 768.041 1030.95 771.602 1033.08 774.236 1034.77 C 780.039 1038.21 784.47 1041.4 789.95 1045.27 L 790.613 1045.03 C 800.665 1044.78 830.038 1030.47 840.938 1025.49 C 840.544 1023 840.299 1021.44 839.677 1018.96 C 843.165 1017.47 846.985 1015.94 850.381 1014.41 L 854.344 1012.6 C 858.169 1012.35 876.845 1006.1 881.774 1004.73 C 897.837 1000.27 914.088 996.522 930.48 993.489 C 1021.8 977.173 1133.33 986.618 1217.09 1028.18 C 1231.09 992.201 1253.16 956.265 1270.11 921.507 C 1297.38 865.58 1328.89 811.014 1355.55 754.936 z" fill="rgb(30,26,69)" transform="translate(0,0)"></path>
<path d="M 660.703 998.041 C 663.086 998.389 665.183 998.679 667.579 998.908 C 690.957 1001 716.286 1007.08 737.928 1016.27 C 745.138 1019.33 759.731 1027.45 765.294 1029.49 C 768.041 1030.95 771.602 1033.08 774.236 1034.77 C 780.039 1038.21 784.47 1041.4 789.95 1045.27 C 819.513 1069.07 835.707 1085.61 854.095 1119.39 C 855.589 1121.42 856.717 1124.55 858.212 1126.99 C 868.867 1149.64 883.404 1189.08 880.594 1214.28 C 878.083 1218.41 880.938 1218.65 879.389 1221.78 C 878.693 1256.29 876.012 1281.21 864.457 1314.19 C 861.355 1323.04 856.289 1332.36 853.36 1340.89 C 853.749 1344.33 853.045 1344.52 852.595 1347.73 C 853.435 1347.23 854.227 1346.71 853.588 1345.69 L 854.498 1347.92 C 851.462 1358.02 824.232 1398.06 815.059 1403.8 L 814.674 1406.21 C 812.995 1407.87 811.576 1410.32 810.166 1412.32 L 809.485 1412.6 C 805.946 1413.41 804.453 1414.94 801.25 1413.74 C 798.685 1415.43 791.135 1423.17 787.446 1425.91 C 784.456 1428.13 776.471 1434.26 773.981 1436.58 C 768.328 1438.54 748.394 1451.75 741.504 1455.01 C 683.591 1482.35 613.61 1484.78 555.806 1455.75 C 548.19 1451.92 498.742 1425.71 502.917 1415.35 C 506.324 1415.79 505.688 1416.14 508.832 1418.88 C 509.121 1414.1 509.659 1416.31 506.759 1412.11 L 508.734 1409.36 C 501.707 1411.02 497.905 1412.02 491.261 1415.17 C 476.216 1421.5 469.357 1426.75 456.632 1437.37 C 458.749 1430.83 463.524 1432.96 457.428 1427.58 C 454.443 1429.9 451.676 1434.2 449.639 1435.07 L 449.651 1432.48 C 451.855 1430.38 453.281 1429.37 454.46 1426.54 C 443.376 1402.75 424.701 1374.24 404.387 1358.04 C 385.276 1342.8 394.584 1353.41 378.857 1358.97 C 377.575 1359.42 377.027 1358.27 375.901 1357.1 C 370.111 1356.03 368.539 1349.68 365.817 1345.42 C 357.849 1332.98 365.681 1332.49 365.327 1322.04 C 369.096 1320.07 369.854 1319.58 373.19 1316.93 C 372.466 1309.46 368.816 1300.25 367.372 1292.38 C 366.075 1289.18 366.287 1288.17 363.913 1285.9 C 364.799 1285.64 364.207 1285.89 365.292 1284.55 C 364.892 1280.22 364.823 1280.26 363.208 1276.16 C 362.311 1268.04 360.563 1261.41 359.946 1252.55 C 360.282 1249.11 360.344 1245.17 360.487 1241.67 L 361.096 1243.07 C 363.448 1237.57 364.565 1223.94 365.012 1217.63 C 366.934 1190.5 373.147 1175.31 385.254 1151.77 C 399.882 1123.33 414.31 1112.26 442.428 1097.63 C 452.132 1092.59 462.462 1083.82 472.646 1078.8 C 467.408 1086.42 461.407 1093.07 456.851 1100.81 L 458.26 1101.21 C 484.883 1063.35 505.665 1047.06 544.059 1023.47 C 547.847 1022.46 563.238 1014.36 569.197 1012.21 C 600.918 1000.73 627.45 997.439 660.703 998.041 z" fill="rgb(15,144,133)" transform="translate(0,0)"></path>
<path d="M 660.703 998.041 C 663.086 998.389 665.183 998.679 667.579 998.908 C 690.957 1001 716.286 1007.08 737.928 1016.27 C 745.138 1019.33 759.731 1027.45 765.294 1029.49 C 768.041 1030.95 771.602 1033.08 774.236 1034.77 C 780.039 1038.21 784.47 1041.4 789.95 1045.27 C 819.513 1069.07 835.707 1085.61 854.095 1119.39 C 855.589 1121.42 856.717 1124.55 858.212 1126.99 C 868.867 1149.64 883.404 1189.08 880.594 1214.28 C 878.083 1218.41 880.938 1218.65 879.389 1221.78 C 878.693 1256.29 876.012 1281.21 864.457 1314.19 C 861.355 1323.04 856.289 1332.36 853.36 1340.89 C 853.749 1344.33 853.045 1344.52 852.595 1347.73 C 853.435 1347.23 854.227 1346.71 853.588 1345.69 L 854.498 1347.92 C 851.462 1358.02 824.232 1398.06 815.059 1403.8 L 814.674 1406.21 C 812.995 1407.87 811.576 1410.32 810.166 1412.32 L 809.485 1412.6 C 805.946 1413.41 804.453 1414.94 801.25 1413.74 C 798.685 1415.43 791.135 1423.17 787.446 1425.91 C 784.456 1428.13 776.471 1434.26 773.981 1436.58 C 768.328 1438.54 748.394 1451.75 741.504 1455.01 C 683.591 1482.35 613.61 1484.78 555.806 1455.75 C 548.19 1451.92 498.742 1425.71 502.917 1415.35 C 506.324 1415.79 505.688 1416.14 508.832 1418.88 C 509.121 1414.1 509.659 1416.31 506.759 1412.11 L 508.734 1409.36 C 514.6 1408.48 522.133 1407.14 527.898 1406.61 C 538.806 1412.19 558.806 1423.75 569.373 1427.08 C 578.138 1432.03 599.228 1436.27 609.48 1438.33 C 649.161 1446.45 690.377 1442.17 727.544 1426.08 C 756.623 1413.79 757.71 1407.04 791.058 1407.41 C 823.081 1377.68 846.444 1339.83 858.659 1297.87 C 860.835 1290.22 863.504 1280.3 864.099 1272.58 C 860.884 1268.28 857.725 1263.94 854.622 1259.55 C 857.29 1214.09 857.358 1181.18 836.328 1138.62 C 827.801 1121.36 821.843 1111.24 809.001 1096.37 C 771.016 1051.55 716.361 1024.21 657.718 1020.69 C 605.667 1017.18 550.822 1037.18 511.782 1070.96 C 457.283 1118.12 431.55 1197.34 443.582 1267.74 C 444.286 1271.86 446.653 1282.41 446.428 1285.68 C 440.546 1282.77 430.416 1266.14 427.791 1259.93 C 426.203 1256.17 428.582 1259.71 425.992 1256.51 L 424.029 1258.33 L 422.716 1256.07 C 418.949 1248.9 422.062 1236.64 420.92 1229.01 C 418.852 1215.18 417.829 1207.53 420.76 1193.62 C 420.749 1196.13 420.869 1197.86 421.054 1200.34 L 422.224 1199.85 C 425.148 1192.8 424.369 1182.57 424.73 1174.89 C 425.156 1165.85 437.839 1141.56 436.464 1134.93 C 438.501 1129.09 442.972 1121.87 446.139 1116.31 L 451.234 1113.21 C 452.94 1109.84 456.253 1104.62 458.26 1101.21 C 484.883 1063.35 505.665 1047.06 544.059 1023.47 C 547.847 1022.46 563.238 1014.36 569.197 1012.21 C 600.918 1000.73 627.45 997.439 660.703 998.041 z" fill="rgb(18,250,239)" transform="translate(0,0)"></path>
<path d="M 508.832 1418.88 C 510.71 1422.92 517.079 1427.77 520.804 1430.45 C 662.915 1533.01 840.513 1437.67 870.825 1273.48 C 872.153 1266.22 873.136 1258.89 873.771 1251.54 C 874.374 1244.79 873.934 1222 876.819 1218.04 L 878.366 1218.29 L 879.389 1221.78 C 878.693 1256.29 876.012 1281.21 864.457 1314.19 C 861.355 1323.04 856.289 1332.36 853.36 1340.89 C 853.749 1344.33 853.045 1344.52 852.595 1347.73 C 853.435 1347.23 854.227 1346.71 853.588 1345.69 L 854.498 1347.92 C 851.462 1358.02 824.232 1398.06 815.059 1403.8 L 814.674 1406.21 C 812.995 1407.87 811.576 1410.32 810.166 1412.32 L 809.485 1412.6 C 805.946 1413.41 804.453 1414.94 801.25 1413.74 C 798.685 1415.43 791.135 1423.17 787.446 1425.91 C 784.456 1428.13 776.471 1434.26 773.981 1436.58 C 768.328 1438.54 748.394 1451.75 741.504 1455.01 C 683.591 1482.35 613.61 1484.78 555.806 1455.75 C 548.19 1451.92 498.742 1425.71 502.917 1415.35 C 506.324 1415.79 505.688 1416.14 508.832 1418.88 z" fill="rgb(238,240,255)" transform="translate(0,0)"></path>
<path d="M 814.612 1398.21 C 822.37 1387.79 828.698 1380.87 836.374 1369.44 C 842.57 1360.21 847.881 1349 853.36 1340.89 C 853.749 1344.33 853.045 1344.52 852.595 1347.73 C 853.435 1347.23 854.227 1346.71 853.588 1345.69 L 854.498 1347.92 C 851.462 1358.02 824.232 1398.06 815.059 1403.8 C 812.08 1403.05 813.843 1401.49 814.612 1398.21 z" fill="rgb(18,250,239)" transform="translate(0,0)"></path>
<path d="M 814.612 1398.21 C 813.843 1401.49 812.08 1403.05 815.059 1403.8 L 814.674 1406.21 C 812.995 1407.87 811.576 1410.32 810.166 1412.32 L 809.485 1412.6 C 805.946 1413.41 804.453 1414.94 801.25 1413.74 C 805.211 1408.82 810.374 1403.02 814.612 1398.21 z" fill="rgb(18,250,239)" transform="translate(0,0)"></path>
<path d="M 359.946 1252.55 C 360.282 1249.11 360.344 1245.17 360.487 1241.67 L 361.096 1243.07 C 361.183 1245.76 360.626 1245.79 361.818 1247.04 L 362.096 1245.99 C 370.499 1268.46 385.461 1302.29 399.926 1320.56 C 427.091 1354.89 453.057 1371.67 469.433 1415.64 L 471.947 1414.68 L 473.045 1415.42 C 467.069 1419.69 462.862 1422.69 457.428 1427.58 C 454.443 1429.9 451.676 1434.2 449.639 1435.07 L 449.651 1432.48 C 451.855 1430.38 453.281 1429.37 454.46 1426.54 C 443.376 1402.75 424.701 1374.24 404.387 1358.04 C 385.276 1342.8 394.584 1353.41 378.857 1358.97 C 377.575 1359.42 377.027 1358.27 375.901 1357.1 C 370.111 1356.03 368.539 1349.68 365.817 1345.42 C 357.849 1332.98 365.681 1332.49 365.327 1322.04 C 369.096 1320.07 369.854 1319.58 373.19 1316.93 C 372.466 1309.46 368.816 1300.25 367.372 1292.38 C 366.075 1289.18 366.287 1288.17 363.913 1285.9 C 364.799 1285.64 364.207 1285.89 365.292 1284.55 C 364.892 1280.22 364.823 1280.26 363.208 1276.16 C 362.311 1268.04 360.563 1261.41 359.946 1252.55 z" fill="rgb(13,94,96)" transform="translate(0,0)"></path>
<path d="M 370.862 1327.41 C 372.452 1327.29 375.847 1326.66 376.877 1328.13 C 381.034 1334.07 386.028 1344.07 387.948 1351.02 C 382.99 1354.85 381.619 1356.74 375.901 1357.1 C 369.721 1347.1 368.194 1344.98 363.072 1333.86 C 365.612 1331.65 368.209 1329.49 370.862 1327.41 z" fill="rgb(55,224,176)" transform="translate(0,0)"></path>
<path d="M 369.788 1330.94 C 374.554 1331.78 379.807 1345.56 382.798 1350.79 C 382.191 1350.98 379.079 1352.24 378.469 1351.46 C 373.991 1345.79 370.403 1338.05 369.788 1330.94 z" fill="rgb(238,240,255)" transform="translate(0,0)"></path>
<path d="M 417.67 1307.78 C 415.818 1299.43 412.476 1291.42 410.49 1281.27 C 400.787 1231.82 405.935 1178.2 426.1 1131.92 C 429.582 1123.93 434.641 1108.44 443.355 1106.73 C 445.658 1108.5 449.431 1111.19 451.234 1113.21 L 446.139 1116.31 C 442.972 1121.87 438.501 1129.09 436.464 1134.93 C 437.839 1141.56 425.156 1165.85 424.73 1174.89 C 424.369 1182.57 425.148 1192.8 422.224 1199.85 L 421.054 1200.34 C 420.869 1197.86 420.749 1196.13 420.76 1193.62 C 417.829 1207.53 418.852 1215.18 420.92 1229.01 C 422.062 1236.64 418.949 1248.9 422.716 1256.07 L 424.029 1258.33 C 428.275 1271.69 424.697 1284.59 433.792 1296.69 C 432.982 1304.85 434.3 1303.75 431.153 1310.65 C 427.275 1312.08 426.423 1312.51 422.394 1312.97 C 418.663 1311.33 419.931 1312.19 417.67 1307.78 z" fill="rgb(55,224,176)" transform="translate(0,0)"></path>
<path d="M 442.037 1112.57 L 446.139 1116.31 C 442.972 1121.87 438.501 1129.09 436.464 1134.93 C 412.009 1186.04 409.472 1252 427.203 1305.64 L 425.924 1306.3 L 424.201 1305.7 C 421.254 1302.43 420.31 1298.24 419.128 1294.09 C 403.01 1237.53 412.175 1163.55 442.037 1112.57 z" fill="rgb(238,240,255)" transform="translate(0,0)"></path>
<path d="M 436.618 1322.46 C 443.386 1317.56 442.621 1318.83 451.715 1317.35 C 454.132 1323.63 456.393 1329.96 458.582 1336.32 C 459.621 1336.54 460.423 1336.59 461.288 1337.08 C 464.233 1355.05 479.643 1372.3 487.928 1387.96 C 488.893 1392.02 480.811 1402.61 473.128 1392.26 C 462.316 1377.7 437.806 1339.95 436.618 1322.46 z" fill="rgb(18,250,239)" transform="translate(0,0)"></path>
<path d="M 458.379 1350.12 C 458.145 1345.39 458.26 1342.39 455.642 1338.08 C 454.765 1336.64 450.89 1325.86 451.482 1325.26 C 453.936 1325.08 456.054 1335.45 457.55 1337.85 L 457.729 1337.84 C 457.837 1337.69 458.444 1336.61 458.582 1336.32 C 459.621 1336.54 460.423 1336.59 461.288 1337.08 C 464.233 1355.05 479.643 1372.3 487.928 1387.96 C 488.893 1392.02 480.811 1402.61 473.128 1392.26 C 474.823 1391.66 476.256 1391.67 478.084 1391.48 C 479.616 1391.01 480.744 1390.39 482.184 1389.69 C 475.901 1377.75 462.657 1363.03 458.379 1350.12 z" fill="rgb(55,224,176)" transform="translate(0,0)"></path>
<path d="M 478.084 1391.48 C 465.712 1375.23 454.56 1355.5 447.202 1336.44 C 445.611 1332.32 441.588 1324.87 442.74 1321.17 L 444.877 1320.97 L 444.788 1320.94 C 446.765 1322.32 454.714 1344.57 458.379 1350.12 C 462.657 1363.03 475.901 1377.75 482.184 1389.69 C 480.744 1390.39 479.616 1391.01 478.084 1391.48 z" fill="rgb(238,240,255)" transform="translate(0,0)"></path>
<path d="M 473.045 1415.42 C 488.569 1408.72 507.126 1398.55 525.06 1401.47 C 529.439 1402.19 534.673 1408.39 538.609 1410.61 C 544.94 1414.5 564.705 1422.25 569.373 1427.08 C 558.806 1423.75 538.806 1412.19 527.898 1406.61 C 522.133 1407.14 514.6 1408.48 508.734 1409.36 C 501.707 1411.02 497.905 1412.02 491.261 1415.17 C 476.216 1421.5 469.357 1426.75 456.632 1437.37 C 458.749 1430.83 463.524 1432.96 457.428 1427.58 C 462.862 1422.69 467.069 1419.69 473.045 1415.42 z" fill="url(#Gradient8)" transform="translate(0,0)"></path>
<path d="M 433.792 1296.69 C 434.059 1298.14 434.441 1303.37 434.668 1303.97 C 440.299 1303.16 446.766 1296.63 449.395 1305.7 C 452.531 1316.52 456.248 1326.8 461.288 1337.08 C 460.423 1336.59 459.621 1336.54 458.582 1336.32 C 456.393 1329.96 454.132 1323.63 451.715 1317.35 C 442.621 1318.83 443.386 1317.56 436.618 1322.46 C 436.298 1318.69 434.628 1312.55 431.153 1310.65 C 434.3 1303.75 432.982 1304.85 433.792 1296.69 z" fill="rgb(9,180,156)" transform="translate(0,0)"></path>
<path d="M 631.488 1028.99 C 743.428 1019.76 841.688 1102.95 851.056 1214.88 C 860.424 1326.8 777.36 1425.17 665.443 1434.68 C 553.329 1444.2 454.754 1360.96 445.37 1248.83 C 435.985 1136.71 519.35 1038.23 631.488 1028.99 z" fill="rgb(238,240,255)" transform="translate(0,0)"></path>
<path d="M 645.989 1158.82 C 685.797 1155.89 720.434 1185.8 723.337 1225.61 C 726.24 1265.42 696.308 1300.05 656.497 1302.93 C 616.716 1305.8 582.129 1275.9 579.228 1236.12 C 576.328 1196.34 606.211 1161.74 645.989 1158.82 z" fill="rgb(30,142,157)" transform="translate(0,0)"></path>
<path d="M 641.624 1166.76 C 677.128 1161.18 710.416 1185.49 715.917 1221 C 721.418 1256.52 697.044 1289.75 661.517 1295.18 C 626.097 1300.59 592.982 1276.3 587.497 1240.89 C 582.013 1205.48 606.227 1172.32 641.624 1166.76 z" fill="rgb(18,250,239)" transform="translate(0,0)"></path>
<path d="M 493.283 1259.09 C 513.834 1258.06 535.803 1259.44 556.51 1259.1 C 567.125 1258.93 570.992 1269.58 561.48 1277.31 C 543.326 1280.31 515.577 1276.79 496.481 1277.76 C 489.266 1278.13 485.586 1266.06 493.283 1259.09 z" fill="rgb(18,250,239)" transform="translate(0,0)"></path>
<path d="M 480.382 1211.23 C 500.8 1210.53 521.544 1211.43 541.974 1211.04 C 555.095 1210.79 558.575 1220.76 548.878 1228.95 C 528.703 1231.16 504.482 1229.47 483.981 1229.79 C 475.67 1229.92 472.871 1218.41 480.382 1211.23 z" fill="rgb(18,250,239)" transform="translate(0,0)"></path>
<path d="M 749.79 1211.27 C 764.019 1210.79 778.607 1210.9 792.916 1210.93 C 799.04 1210.94 817.709 1208.7 821.057 1214.98 C 824.079 1220.66 819.756 1225.98 814.77 1228.96 C 798.588 1229.88 774.735 1227.77 759.998 1229.37 C 739.098 1231.64 736.96 1214.92 749.79 1211.27 z" fill="rgb(18,250,239)" transform="translate(0,0)"></path>
<path d="M 740.564 1259.11 C 761.94 1258.59 784.114 1258.97 805.505 1259.21 C 813.911 1259.3 813.517 1271.41 807.384 1277.45 C 800.25 1277.94 742.233 1278.28 739.636 1276.42 C 737.666 1275.04 736.384 1272.87 736.114 1270.48 C 735.685 1266.61 737.092 1263.07 739.652 1260.19 L 740.564 1259.11 z" fill="rgb(18,250,239)" transform="translate(0,0)"></path>
<path d="M 814.674 1406.21 C 819.398 1406.44 839.601 1406.76 843.315 1405.94 C 846.127 1406.07 862.959 1405.91 862.576 1409.52 C 862.093 1410.14 856.501 1409.01 855.392 1410.15 C 855.446 1410.89 856.215 1411.42 856.672 1411.94 C 865.24 1411.92 873.99 1411.67 882.523 1412.08 C 885.067 1411.88 887.464 1411.83 890.003 1411.75 L 1369.96 1412.11 C 1406.59 1412.36 1443.22 1412.34 1479.85 1412.05 C 1499.26 1411.94 1527.66 1410.35 1546.29 1413.24 C 1614.06 1423.74 1641.37 1510.43 1590.47 1557.21 C 1560.88 1585.01 1532.36 1581.01 1494.6 1580.99 L 1422 1580.95 L 1180.79 1581.03 L 739.379 1581.09 L 595.246 1581.27 C 572.108 1581.33 547.651 1581.07 524.498 1581.49 C 472.531 1582.41 433.459 1545.83 434.468 1493.32 C 434.567 1488.18 435.806 1477.95 437.872 1473.19 C 439.071 1468.41 441.791 1461.91 443.596 1457.16 C 446.484 1454.82 450.446 1443.45 457.108 1439.09 L 456.632 1437.37 C 469.357 1426.75 476.216 1421.5 491.261 1415.17 C 497.905 1412.02 501.707 1411.02 508.734 1409.36 L 506.759 1412.11 C 509.659 1416.31 509.121 1414.1 508.832 1418.88 C 505.688 1416.14 506.324 1415.79 502.917 1415.35 C 498.742 1425.71 548.19 1451.92 555.806 1455.75 C 613.61 1484.78 683.591 1482.35 741.504 1455.01 C 748.394 1451.75 768.328 1438.54 773.981 1436.58 C 776.471 1434.26 784.456 1428.13 787.446 1425.91 C 791.135 1423.17 798.685 1415.43 801.25 1413.74 C 804.453 1414.94 805.946 1413.41 809.485 1412.6 L 810.166 1412.32 C 811.576 1410.32 812.995 1407.87 814.674 1406.21 z" fill="rgb(134,21,247)" transform="translate(0,0)"></path>
<path d="M 814.674 1406.21 C 819.398 1406.44 839.601 1406.76 843.315 1405.94 C 846.127 1406.07 862.959 1405.91 862.576 1409.52 C 862.093 1410.14 856.501 1409.01 855.392 1410.15 C 855.446 1410.89 856.215 1411.42 856.672 1411.94 L 854.328 1412.03 L 857.009 1413.65 C 858.335 1426.93 812.81 1464.14 802.046 1466.01 C 801.466 1470.47 805.316 1465.57 801.767 1470.87 C 798.366 1472.67 792.527 1475.1 790.84 1478.16 C 741.862 1510.28 683.833 1525.75 625.366 1522.27 C 571.569 1519.37 532.652 1495.56 489.306 1466.89 C 479.82 1460.61 462.262 1452.56 455.029 1444.5 C 456.214 1442.38 456.821 1441.5 457.108 1439.09 L 456.632 1437.37 C 469.357 1426.75 476.216 1421.5 491.261 1415.17 C 497.905 1412.02 501.707 1411.02 508.734 1409.36 L 506.759 1412.11 C 509.659 1416.31 509.121 1414.1 508.832 1418.88 C 505.688 1416.14 506.324 1415.79 502.917 1415.35 C 498.742 1425.71 548.19 1451.92 555.806 1455.75 C 613.61 1484.78 683.591 1482.35 741.504 1455.01 C 748.394 1451.75 768.328 1438.54 773.981 1436.58 C 776.471 1434.26 784.456 1428.13 787.446 1425.91 C 791.135 1423.17 798.685 1415.43 801.25 1413.74 C 804.453 1414.94 805.946 1413.41 809.485 1412.6 L 810.166 1412.32 C 811.576 1410.32 812.995 1407.87 814.674 1406.21 z" fill="rgb(67,152,243)" transform="translate(0,0)"></path>
<path d="M 491.261 1415.17 C 497.905 1412.02 501.707 1411.02 508.734 1409.36 L 506.759 1412.11 C 509.659 1416.31 509.121 1414.1 508.832 1418.88 C 505.688 1416.14 506.324 1415.79 502.917 1415.35 C 498.742 1425.71 548.19 1451.92 555.806 1455.75 C 613.61 1484.78 683.591 1482.35 741.504 1455.01 C 748.394 1451.75 768.328 1438.54 773.981 1436.58 C 781.462 1435.22 784.841 1429.96 786.231 1430.92 C 786.536 1431.98 777.12 1440.5 774.866 1444.68 C 690.465 1498.61 587.14 1496.27 508.057 1434.32 C 502.76 1430.17 495.662 1420.58 491.261 1415.17 z" fill="rgb(18,250,239)" transform="translate(0,0)"></path>
<path d="M 814.674 1406.21 C 819.398 1406.44 839.601 1406.76 843.315 1405.94 C 846.127 1406.07 862.959 1405.91 862.576 1409.52 C 862.093 1410.14 856.501 1409.01 855.392 1410.15 C 855.446 1410.89 856.215 1411.42 856.672 1411.94 L 854.328 1412.03 C 839.336 1411.91 825.077 1412.12 810.166 1412.32 C 811.576 1410.32 812.995 1407.87 814.674 1406.21 z" fill="rgb(30,142,157)" transform="translate(0,0)"></path>
<path d="M 801.25 1413.74 C 804.453 1414.94 805.946 1413.41 809.485 1412.6 C 802.769 1421.74 784.402 1438.86 774.866 1444.68 C 777.12 1440.5 786.536 1431.98 786.231 1430.92 C 784.841 1429.96 781.462 1435.22 773.981 1436.58 C 776.471 1434.26 784.456 1428.13 787.446 1425.91 C 791.135 1423.17 798.685 1415.43 801.25 1413.74 z" fill="rgb(21,229,234)" transform="translate(0,0)"></path>
<path d="M 856.672 1411.94 C 865.24 1411.92 873.99 1411.67 882.523 1412.08 L 881.654 1412.34 C 878.081 1413.38 877.374 1413.49 873.703 1413.8 C 869.804 1416.58 870.677 1418.54 868.163 1423.17 C 866.314 1427.29 863.173 1431.92 860.731 1435.82 C 847.057 1457.37 808.021 1483.64 786.096 1498.3 C 765.873 1511.83 731.909 1522.94 708.586 1529.06 C 677.298 1535.51 637.339 1542.65 605.886 1537.79 C 592.203 1534.99 575.891 1529.89 563.005 1524.66 C 546.359 1517.9 516.914 1506.87 502.639 1495.69 C 486.935 1483.39 456.865 1471.62 444.638 1459.96 C 442.747 1464.68 441.299 1469.62 437.872 1473.19 C 439.071 1468.41 441.791 1461.91 443.596 1457.16 C 446.484 1454.82 450.446 1443.45 457.108 1439.09 C 456.821 1441.5 456.214 1442.38 455.029 1444.5 C 462.262 1452.56 479.82 1460.61 489.306 1466.89 C 532.652 1495.56 571.569 1519.37 625.366 1522.27 C 683.833 1525.75 741.862 1510.28 790.84 1478.16 C 792.527 1475.1 798.366 1472.67 801.767 1470.87 C 805.316 1465.57 801.466 1470.47 802.046 1466.01 C 812.81 1464.14 858.335 1426.93 857.009 1413.65 L 854.328 1412.03 L 856.672 1411.94 z" fill="rgb(139,123,255)" transform="translate(0,0)"></path>
<path d="M 1148.09 1447.39 C 1258.73 1445.86 1371.24 1449.03 1482.03 1446.97 L 1481.76 1556.56 C 1477.46 1557.36 1458.09 1557.09 1452.84 1557.07 L 1392.3 1556.91 L 1148.92 1556.99 C 1149.57 1538.14 1149.05 1517.53 1149.02 1498.58 C 1149 1482.51 1149.25 1463.2 1148.09 1447.39 z" fill="rgb(33,90,123)" transform="translate(0,0)"></path>
<path d="M 1155.88 1454.06 C 1201.13 1454.3 1246.38 1454.28 1291.63 1454 C 1352.57 1454.35 1413.52 1454.34 1474.46 1453.97 C 1475.2 1485.48 1474.77 1518.47 1474.79 1550.1 L 1156.12 1550.18 L 1155.88 1454.06 z" fill="rgb(18,250,239)" transform="translate(0,0)"></path>
<path d="M 896.027 1070.22 C 902.288 1076.75 911.256 1089.93 914.365 1098.26 C 915.248 1100.32 915.98 1102.12 917.036 1104.11 C 922.426 1102.72 932.72 1099.62 937.881 1099.49 C 941.787 1098.51 945.677 1097.68 949.536 1096.62 C 960.979 1095.27 973.876 1093.24 985.183 1092.36 C 1049.94 1087.46 1114.94 1097.77 1175 1122.46 C 1159.71 1149.87 1143.93 1183.34 1129.72 1211.79 C 1098.58 1215.45 1088.86 1222.75 1068.43 1246.39 C 1049.01 1246.03 1016.34 1242.46 1000.61 1256.15 C 990.024 1265.38 990.966 1287.95 1001.08 1297.24 C 1012.03 1307.8 1027.16 1306.39 1041.23 1306.12 C 1046.73 1306.01 1053.21 1305.83 1058.62 1305.42 C 1065.05 1327.54 1075.4 1342.91 1096.1 1354.31 C 1114.46 1364.45 1136.11 1366.84 1156.24 1360.95 C 1177.39 1354.74 1191.97 1341.31 1203.28 1322.91 C 1217.76 1322.89 1233.9 1323.3 1248.19 1321.69 C 1253.76 1318.03 1258.14 1313.47 1259.47 1306.73 C 1265.31 1277.26 1228.11 1282 1210.76 1282.95 C 1231.14 1248.35 1250.08 1212.92 1267.52 1176.75 C 1322.82 1218.14 1365.42 1274.2 1390.49 1338.56 C 1398.79 1359.92 1405.2 1383.84 1411.36 1405.96 L 1068.99 1405.94 L 954.134 1405.87 C 938.272 1405.85 908.236 1405.05 893.554 1406.37 C 881.533 1405.88 870.749 1406.04 858.799 1404.54 C 852.43 1405.45 850.377 1403.46 843.913 1405.73 L 843.315 1405.94 C 839.601 1406.76 819.398 1406.44 814.674 1406.21 L 815.059 1403.8 C 824.232 1398.06 851.462 1358.02 854.498 1347.92 L 853.588 1345.69 C 854.227 1346.71 853.435 1347.23 852.595 1347.73 C 853.045 1344.52 853.749 1344.33 853.36 1340.89 C 856.289 1332.36 861.355 1323.04 864.457 1314.19 C 876.012 1281.21 878.693 1256.29 879.389 1221.78 C 880.938 1218.65 878.083 1218.41 880.594 1214.28 C 883.404 1189.08 868.867 1149.64 858.212 1126.99 C 856.717 1124.55 855.589 1121.42 854.095 1119.39 C 859.619 1115.74 889.376 1103.45 896.615 1101.16 C 893.453 1096.16 891.88 1093.47 889.249 1088.11 C 887.127 1086.21 887.201 1085.9 885.866 1083.31 C 886.142 1078.95 887.226 1077.45 890.743 1074.4 C 892.443 1072.93 894.205 1071.53 896.027 1070.22 z" fill="url(#Gradient7)" transform="translate(0,0)"></path>
<path d="M 896.615 1101.16 C 898.009 1103.47 899.085 1105.53 900.367 1107.86 C 938.417 1174.19 941.179 1262.93 909.821 1332.12 C 907.792 1336.6 901.455 1347.56 900.787 1351.43 C 887.531 1354.67 866.951 1393.61 858.799 1404.54 C 852.43 1405.45 850.377 1403.46 843.913 1405.73 L 843.315 1405.94 C 839.601 1406.76 819.398 1406.44 814.674 1406.21 L 815.059 1403.8 C 824.232 1398.06 851.462 1358.02 854.498 1347.92 L 853.588 1345.69 C 854.227 1346.71 853.435 1347.23 852.595 1347.73 C 853.045 1344.52 853.749 1344.33 853.36 1340.89 C 856.289 1332.36 861.355 1323.04 864.457 1314.19 C 876.012 1281.21 878.693 1256.29 879.389 1221.78 C 880.938 1218.65 878.083 1218.41 880.594 1214.28 C 883.404 1189.08 868.867 1149.64 858.212 1126.99 C 856.717 1124.55 855.589 1121.42 854.095 1119.39 C 859.619 1115.74 889.376 1103.45 896.615 1101.16 z" fill="rgb(15,144,133)" transform="translate(0,0)"></path>
<path d="M 879.389 1221.78 C 880.938 1218.65 878.083 1218.41 880.594 1214.28 C 886.492 1220.72 885.53 1228.66 885.283 1237.39 C 884.439 1267.16 871.82 1324.18 854.498 1347.92 L 853.588 1345.69 C 854.227 1346.71 853.435 1347.23 852.595 1347.73 C 853.045 1344.52 853.749 1344.33 853.36 1340.89 C 856.289 1332.36 861.355 1323.04 864.457 1314.19 C 876.012 1281.21 878.693 1256.29 879.389 1221.78 z" fill="rgb(55,224,176)" transform="translate(0,0)"></path>
<path d="M 896.615 1101.16 C 898.009 1103.47 899.085 1105.53 900.367 1107.86 C 889.218 1111.13 865.182 1118.14 858.212 1126.99 C 856.717 1124.55 855.589 1121.42 854.095 1119.39 C 859.619 1115.74 889.376 1103.45 896.615 1101.16 z" fill="rgb(30,142,157)" transform="translate(0,0)"></path>
<path d="M 896.027 1070.22 C 902.288 1076.75 911.256 1089.93 914.365 1098.26 C 915.248 1100.32 915.98 1102.12 917.036 1104.11 L 919.492 1109.88 C 926.27 1123.26 936.372 1148.97 938.467 1163.83 C 940.201 1171.43 941.856 1178.12 942.735 1185.86 C 943.848 1192.32 945.144 1200.32 945.059 1206.84 C 948.356 1224.65 945.911 1264.11 941.548 1281.04 C 940.277 1289.98 937.655 1299.75 935.238 1308.5 C 931.458 1320.56 928.545 1329.08 922.97 1340.7 C 921.454 1343.86 916.094 1353.69 915.125 1356.05 L 914.026 1356.28 C 908.204 1358.75 904.938 1355.05 900.787 1351.43 C 901.455 1347.56 907.792 1336.6 909.821 1332.12 C 941.179 1262.93 938.417 1174.19 900.367 1107.86 C 899.085 1105.53 898.009 1103.47 896.615 1101.16 C 893.453 1096.16 891.88 1093.47 889.249 1088.11 C 887.127 1086.21 887.201 1085.9 885.866 1083.31 C 886.142 1078.95 887.226 1077.45 890.743 1074.4 C 892.443 1072.93 894.205 1071.53 896.027 1070.22 z" fill="rgb(55,224,176)" transform="translate(0,0)"></path>
<path d="M 891.318 1081.11 L 893.095 1079.43 C 904.008 1080.93 913.868 1115.9 920.268 1124 C 925.846 1138.26 929.778 1149.18 933.605 1164.26 L 938.527 1191.28 C 940.261 1187.96 940.038 1188.11 942.735 1185.86 C 943.848 1192.32 945.144 1200.32 945.059 1206.84 C 944.105 1214.59 946.655 1213.98 942.281 1218.02 C 941.856 1219.3 942.287 1222.41 941.73 1224.78 C 941.577 1244.83 940.912 1260.1 937.003 1280.22 C 935.769 1286.34 934.6 1292.84 932.891 1298.83 C 929.438 1311.13 918.366 1342.58 911.582 1353.3 L 908.92 1351.49 C 907.731 1347.15 916.577 1332.5 918.807 1326.63 C 926.803 1305.57 932.376 1282.39 935.633 1260.19 C 943.617 1205.77 925.041 1124.86 891.318 1081.11 z" fill="rgb(238,240,255)" transform="translate(0,0)"></path>
<path d="M 938.527 1191.28 C 940.261 1187.96 940.038 1188.11 942.735 1185.86 C 943.848 1192.32 945.144 1200.32 945.059 1206.84 C 944.105 1214.59 946.655 1213.98 942.281 1218.02 C 941.856 1219.3 942.287 1222.41 941.73 1224.78 C 940.447 1220.61 939.344 1197.75 938.527 1191.28 z" fill="rgb(18,250,239)" transform="translate(0,0)"></path>
<path d="M 917.036 1104.11 C 922.426 1102.72 932.72 1099.62 937.881 1099.49 L 936.945 1101 C 932.786 1101.9 923.371 1103.25 921.165 1106.21 C 926.207 1114.86 934.911 1124.13 939.04 1132.99 C 964.017 1186.54 965.57 1230.35 950.882 1286.58 C 947.026 1301.34 941.414 1314.01 932.492 1326.2 C 926.762 1334.03 923.258 1352.61 915.125 1356.05 C 916.094 1353.69 921.454 1343.86 922.97 1340.7 C 928.545 1329.08 931.458 1320.56 935.238 1308.5 C 937.655 1299.75 940.277 1289.98 941.548 1281.04 C 945.911 1264.11 948.356 1224.65 945.059 1206.84 C 945.144 1200.32 943.848 1192.32 942.735 1185.86 C 941.856 1178.12 940.201 1171.43 938.467 1163.83 C 936.372 1148.97 926.27 1123.26 919.492 1109.88 L 917.036 1104.11 z" fill="rgb(13,94,96)" transform="translate(0,0)"></path>
<path d="M 884.016 1011.53 C 893.338 1007.82 920.202 1002.55 930.765 1000.57 C 1026.43 983.314 1125.07 994.752 1214.25 1033.44 C 1330.03 1083.39 1432.44 1180.49 1478.93 1298.67 C 1493.28 1335.17 1501.35 1367.27 1507.45 1405.85 L 1416.58 1406.03 C 1410.52 1359.44 1380.2 1290.76 1352.64 1252.87 C 1329.56 1221.42 1302.09 1193.45 1271.06 1169.82 C 1222.02 1132.12 1164.5 1107.21 1104.4 1093.28 C 1060.74 1083.16 1018.37 1084.09 974.053 1087.14 C 965.452 1088.26 956.876 1089.57 948.333 1091.07 C 939.416 1092.8 930.402 1094.15 921.511 1096.1 C 919.077 1096.64 916.688 1097.36 914.365 1098.26 C 911.256 1089.93 902.288 1076.75 896.027 1070.22 C 894.205 1071.53 892.443 1072.93 890.743 1074.4 C 887.226 1077.45 886.142 1078.95 885.866 1083.31 C 887.201 1085.9 887.127 1086.21 889.249 1088.11 C 891.88 1093.47 893.453 1096.16 896.615 1101.16 C 889.376 1103.45 859.619 1115.74 854.095 1119.39 C 835.707 1085.61 819.513 1069.07 789.95 1045.27 L 790.613 1045.03 C 800.665 1044.78 830.038 1030.47 840.938 1025.49 C 854.218 1020.01 870.195 1014.7 884.016 1011.53 z" fill="rgb(134,21,247)" transform="translate(0,0)"></path>
<path d="M 840.938 1025.49 C 854.218 1020.01 870.195 1014.7 884.016 1011.53 C 880.733 1015.06 869.864 1017.23 864.389 1018.86 C 879.42 1043.14 919.731 1048.7 938.451 1072.71 C 941.503 1076.63 945.414 1084.93 947.797 1089.61 C 951.255 1086.56 969.275 1086.16 974.053 1087.14 C 965.452 1088.26 956.876 1089.57 948.333 1091.07 C 939.416 1092.8 930.402 1094.15 921.511 1096.1 C 919.077 1096.64 916.688 1097.36 914.365 1098.26 C 911.256 1089.93 902.288 1076.75 896.027 1070.22 C 894.205 1071.53 892.443 1072.93 890.743 1074.4 C 887.226 1077.45 886.142 1078.95 885.866 1083.31 C 887.201 1085.9 887.127 1086.21 889.249 1088.11 C 891.88 1093.47 893.453 1096.16 896.615 1101.16 C 889.376 1103.45 859.619 1115.74 854.095 1119.39 C 835.707 1085.61 819.513 1069.07 789.95 1045.27 L 790.613 1045.03 C 800.665 1044.78 830.038 1030.47 840.938 1025.49 z" fill="url(#Gradient6)" transform="translate(0,0)"></path>
<path d="M 1363.96 755.615 C 1392.75 757.898 1444.17 756.256 1474.71 756.106 C 1472.36 766.433 1438.96 826.286 1432.01 839.65 L 1371.4 958.003 C 1351.19 996.897 1328.07 1039.75 1309.24 1079.11 C 1282.03 1059.88 1253 1043.35 1222.58 1029.74 C 1227.59 1020.95 1232.03 1011.83 1236.58 1002.8 C 1278.3 920.071 1320.73 837.565 1363.96 755.615 z" fill="rgb(134,21,247)" transform="translate(0,0)"></path>
<path d="M 457.428 1427.58 C 463.524 1432.96 458.749 1430.83 456.632 1437.37 L 457.108 1439.09 C 450.446 1443.45 446.484 1454.82 443.596 1457.16 C 440.745 1454.17 447.439 1449.97 446.684 1447.48 C 445.347 1443.07 439.221 1453.66 437.519 1455.14 C 440.633 1448.06 444.993 1441.25 449.639 1435.07 C 451.676 1434.2 454.443 1429.9 457.428 1427.58 z" fill="rgb(33,90,123)" transform="translate(0,0)"></path>
<path d="M 843.315 1405.94 L 843.913 1405.73 C 850.377 1403.46 852.43 1405.45 858.799 1404.54 C 870.749 1406.04 881.533 1405.88 893.554 1406.37 C 888.172 1407.44 883.019 1407.38 877.496 1407.26 C 876.085 1407.23 873.05 1407.15 874.034 1409.61 C 874.35 1410.4 885.777 1409.71 887.043 1409.92 C 889.217 1410.3 889.367 1409.49 890.003 1411.75 C 887.464 1411.83 885.067 1411.88 882.523 1412.08 C 873.99 1411.67 865.24 1411.92 856.672 1411.94 C 856.215 1411.42 855.446 1410.89 855.392 1410.15 C 856.501 1409.01 862.093 1410.14 862.576 1409.52 C 862.959 1405.91 846.127 1406.07 843.315 1405.94 z" fill="rgb(33,90,123)" transform="translate(0,0)"></path>
<path d="M 914.365 1098.26 C 916.688 1097.36 919.077 1096.64 921.511 1096.1 C 930.402 1094.15 939.416 1092.8 948.333 1091.07 C 942.428 1095.11 926.621 1094.77 926.562 1098.14 C 928.835 1102.34 941.134 1095.15 947.224 1096.24 C 947.993 1096.38 948.764 1096.5 949.536 1096.62 C 945.677 1097.68 941.787 1098.51 937.881 1099.49 C 932.72 1099.62 922.426 1102.72 917.036 1104.11 C 915.98 1102.12 915.248 1100.32 914.365 1098.26 z" fill="rgb(42,71,136)" transform="translate(0,0)"></path>
<path d="M 1130.38 1218.02 C 1168.76 1215.94 1201.61 1245.28 1203.85 1283.66 C 1206.08 1322.03 1176.87 1354.99 1138.51 1357.38 C 1099.93 1359.79 1066.74 1330.37 1064.49 1291.78 C 1062.24 1253.19 1091.78 1220.12 1130.38 1218.02 z" fill="rgb(134,21,247)" transform="translate(0,0)"></path>
<path d="M 1125.88 1243.29 C 1150.83 1238.42 1174.98 1254.84 1179.61 1279.84 C 1184.24 1304.84 1167.59 1328.82 1142.55 1333.21 C 1117.84 1337.55 1094.26 1321.17 1089.69 1296.51 C 1085.11 1271.85 1101.26 1248.1 1125.88 1243.29 z" fill="rgb(30,26,69)" transform="translate(0,0)"></path>
<path d="M 1126.39 1249.82 C 1147.38 1245.18 1168.16 1258.39 1172.88 1279.35 C 1177.61 1300.32 1164.49 1321.16 1143.55 1325.97 C 1122.48 1330.8 1101.49 1317.59 1096.74 1296.51 C 1091.99 1275.42 1105.28 1254.48 1126.39 1249.82 z" fill="rgb(134,21,247)" transform="translate(0,0)"></path>
<path d="M 1180.66 1125.08 C 1209.47 1137.17 1237.99 1154.14 1263.42 1172.23 C 1256.55 1182.95 1249.82 1196.79 1243.78 1208.28 C 1233.81 1227.47 1223.61 1246.54 1213.18 1265.49 L 1211.15 1268.81 L 1209.79 1268.93 C 1199.35 1234.1 1172.46 1213.21 1136.4 1211.85 C 1151.44 1186.93 1167.62 1151.81 1180.66 1125.08 z" fill="rgb(134,21,247)" transform="translate(0,0)"></path>
<path d="M 1024.18 1253.35 C 1036.15 1252.84 1052.76 1253.09 1064.71 1253.99 C 1063.04 1259.87 1061.62 1265.11 1060.49 1271.15 C 1047.77 1271.58 1031.05 1271.08 1018.15 1272.32 C 1013.53 1272.76 1014.36 1285.02 1020.01 1285.75 C 1024.85 1286.38 1021.64 1280.68 1023.44 1278.32 C 1029.36 1276.96 1037.59 1277.59 1043.75 1277.65 C 1048.67 1277.7 1053.24 1277.76 1058.14 1277.96 C 1057.87 1285.32 1057.65 1291.4 1057.72 1298.78 C 1050.45 1298.97 1037.48 1298.31 1030.9 1299.5 C 996.8 1305.64 984.95 1257.83 1024.18 1253.35 z" fill="rgb(134,21,247)" transform="translate(0,0)"></path>
<path d="M 1211.03 1289.14 C 1225.55 1289.19 1272.79 1286.97 1247.18 1313.71 C 1238.16 1317.38 1217.84 1315.8 1207.21 1315.6 C 1210.38 1302.57 1211 1302.33 1211.03 1289.14 z" fill="rgb(134,21,247)" transform="translate(0,0)"></path>
<path d="M 1355.55 754.936 L 1311.51 755.179 C 1277.39 755.32 1254.82 754.531 1228.73 729.444 C 1196.36 698.314 1199.33 641.578 1230.57 610.976 C 1241.81 600.032 1255.93 592.499 1271.28 589.252 C 1287.17 585.933 1305.83 586.97 1322.18 586.775 C 1389.16 585.976 1456.26 586.771 1523.22 586.276 C 1575.29 585.891 1616.67 620.417 1615.07 674.544 C 1614.31 697.289 1604.43 718.771 1587.65 734.14 C 1565.88 754.29 1541.21 757.138 1512.71 756.127 C 1503.16 755.789 1492.66 756.371 1483.25 755.542 C 1480.17 755.341 1477.76 755.75 1474.71 756.106 C 1444.17 756.256 1392.75 757.898 1363.96 755.615 C 1361.75 755.152 1357.93 755.076 1355.55 754.936 z" fill="rgb(33,90,123)" transform="translate(0,0)"></path>
<path d="M 1289.66 593.423 C 1337.49 591.664 1393.6 592.991 1442.02 592.951 L 1499.04 592.96 C 1512.66 592.983 1529.46 592.59 1542.59 594.681 C 1555.43 596.661 1567.61 601.682 1578.11 609.324 C 1595.14 621.58 1604.49 638.433 1607.58 659.077 C 1610.83 680.175 1605.5 701.698 1592.78 718.841 C 1577.77 738.92 1559.47 745.688 1535.76 748.985 L 1370.47 748.638 C 1343.98 748.703 1317.45 749.222 1290.97 748.738 C 1271.02 748.374 1253.43 742.472 1238.21 729.428 C 1223.27 716.78 1214.08 698.63 1212.72 679.103 C 1209.16 630.767 1242.03 596.209 1289.66 593.423 z" fill="rgb(18,250,239)" transform="translate(0,0)"></path>
<path d="M 1283.61 605.319 C 1296.78 604.348 1318.6 605.02 1332.12 605.052 L 1425.07 605.256 L 1496.19 605.116 C 1521.59 605.049 1549.44 601.791 1570.86 617.592 C 1585.34 628.236 1594.87 644.319 1597.25 662.138 C 1599.97 680.017 1595.25 698.227 1584.2 712.542 C 1572.37 727.937 1558.46 734.075 1539.7 736.646 C 1531.57 737.645 1508.02 737.088 1498.69 737.087 L 1418.26 737.11 L 1329.84 737.196 C 1313.72 737.239 1297.56 737.854 1281.5 736.534 C 1231.38 732.414 1208.02 669.872 1237.69 631.455 C 1248.96 617.036 1265.46 607.644 1283.61 605.319 z" fill="url(#Gradient5)" transform="translate(0,0)"></path>
<path d="M 1280.46 613.175 C 1298.08 612.36 1318.25 612.805 1336.15 612.804 L 1433.23 612.806 L 1497.78 612.635 C 1517.45 612.565 1544.05 610.338 1561.39 620.216 C 1575.09 628.083 1585.1 641.089 1589.19 656.353 C 1594.89 677.325 1588.65 697.76 1574.06 713.543 C 1565.64 722.645 1556.26 726.052 1544.77 729.148 C 1534.47 730.593 1513.43 729.988 1502.1 729.975 L 1432.07 730.088 L 1336.38 730.272 C 1315.52 730.309 1277.35 733.564 1260.13 722.384 C 1214.31 692.631 1225.3 624.909 1280.46 613.175 z" fill="rgb(238,240,255)" transform="translate(0,0)"></path>
<path d="M 843.911 640.089 L 852.125 640.177 C 886.604 641.419 930.249 641.35 964.614 640.396 C 966.276 640.138 970.893 640.224 972.816 640.214 C 962.284 663.488 948.769 687.321 937.121 710.235 C 901.649 780.017 865.733 849.519 829.302 918.803 C 824.074 928.745 818.932 938.802 814.232 949.001 C 810.324 954.053 801.715 971.888 798.338 978.168 C 795.331 984.589 790.102 994.641 786.32 1000.36 C 784.912 998.121 783.753 996.687 782.024 994.671 C 781.067 995.939 780.473 996.79 779.595 998.111 C 779.053 1001.31 767.586 1023.7 765.294 1029.49 C 759.731 1027.45 745.138 1019.33 737.928 1016.27 C 716.286 1007.08 690.957 1001 667.579 998.908 C 674.393 986.92 680.444 971.095 687.857 959.055 L 690.537 959.382 C 693.376 960.687 697.31 962.69 700.256 962.1 C 703.159 960.053 703.481 956.844 704.542 953.224 C 704.583 950.489 704.412 950.533 703.38 947.94 C 700.537 945.011 699.066 944.953 694.991 943.692 L 695.091 943.068 C 696.295 939.387 702.044 930.646 704.445 927.188 C 706.51 921.265 716.73 905.775 719.527 897.877 C 716.279 891.898 728.211 884.413 720.782 884.6 C 720.447 884.608 716.733 893.283 712.727 896.245 C 715.885 888.855 722.374 876.987 726.176 869.492 L 751.732 818.553 C 775.146 771.424 799.801 725.11 823.469 678.125 C 829.981 665.199 836.823 652.703 843.911 640.089 z" fill="rgb(134,21,247)" transform="translate(0,0)"></path>
<path d="M 731.448 878.308 C 760.475 896.982 787.803 906.157 816.558 925.28 C 814.91 928.142 811.761 932.928 811.254 935.966 L 812.338 936.646 C 808.241 945.322 798.959 964.883 794.043 972.536 L 793.732 974.318 C 790.906 977.438 790.576 980.645 787.717 984.012 C 785.509 987.478 784.114 991.058 782.024 994.671 C 781.067 995.939 780.473 996.79 779.595 998.111 C 779.053 1001.31 767.586 1023.7 765.294 1029.49 C 759.731 1027.45 745.138 1019.33 737.928 1016.27 C 716.286 1007.08 690.957 1001 667.579 998.908 C 674.393 986.92 680.444 971.095 687.857 959.055 L 690.537 959.382 C 693.376 960.687 697.31 962.69 700.256 962.1 C 703.159 960.053 703.481 956.844 704.542 953.224 C 704.583 950.489 704.412 950.533 703.38 947.94 C 700.537 945.011 699.066 944.953 694.991 943.692 L 695.091 943.068 C 696.295 939.387 702.044 930.646 704.445 927.188 C 706.51 921.265 716.73 905.775 719.527 897.877 L 723.513 890.77 L 724.895 890.862 C 727.471 886.377 729.23 882.922 731.448 878.308 z" fill="rgb(96,71,242)" transform="translate(0,0)"></path>
<path d="M 704.445 927.188 C 704.572 932.85 700.92 937.101 697.642 941.911 L 698.838 942.508 C 711.76 949.083 703.339 955.433 711.425 956.692 C 715.662 955.3 719.637 949.222 720.699 949.305 C 737.845 950.645 776.627 972.473 787.838 981.55 C 789.443 977.939 790.281 973.931 794.043 972.536 L 793.732 974.318 C 790.906 977.438 790.576 980.645 787.717 984.012 C 785.509 987.478 784.114 991.058 782.024 994.671 C 781.067 995.939 780.473 996.79 779.595 998.111 C 779.053 1001.31 767.586 1023.7 765.294 1029.49 C 759.731 1027.45 745.138 1019.33 737.928 1016.27 C 716.286 1007.08 690.957 1001 667.579 998.908 C 674.393 986.92 680.444 971.095 687.857 959.055 L 690.537 959.382 C 693.376 960.687 697.31 962.69 700.256 962.1 C 703.159 960.053 703.481 956.844 704.542 953.224 C 704.583 950.489 704.412 950.533 703.38 947.94 C 700.537 945.011 699.066 944.953 694.991 943.692 L 695.091 943.068 C 696.295 939.387 702.044 930.646 704.445 927.188 z" fill="url(#Gradient4)" transform="translate(0,0)"></path>
<path d="M 718.135 958.912 C 726.453 952.598 770.866 978.936 779.669 984.356 C 780.561 983.606 783.548 983.078 785.051 982.478 L 787.717 984.012 C 785.509 987.478 784.114 991.058 782.024 994.671 C 781.067 995.939 780.473 996.79 779.595 998.111 C 775.64 995.552 769.411 990.485 766.583 988.853 C 751.77 980.445 735.979 973.013 719.982 967.141 C 714.529 965.139 715.545 962.34 717.896 957.84 L 718.135 958.912 z" fill="rgb(21,229,234)" transform="translate(0,0)"></path>
<path d="M 718.135 958.912 C 726.453 952.598 770.866 978.936 779.669 984.356 C 779.123 985.696 778.024 989.204 775.95 987.92 C 761.699 979.094 747.337 971.704 731.568 965.783 C 727.386 964.213 720.655 962.464 718.135 958.912 z" fill="rgb(238,240,255)" transform="translate(0,0)"></path>
<path d="M 717.896 957.84 C 718.797 953.993 720.729 949.351 725.367 951.428 C 743.263 959.44 770.584 969.094 785.051 982.478 C 783.548 983.078 780.561 983.606 779.669 984.356 C 770.866 978.936 726.453 952.598 718.135 958.912 L 717.896 957.84 z" fill="rgb(18,250,239)" transform="translate(0,0)"></path>
<path d="M 964.614 640.396 C 966.276 640.138 970.893 640.224 972.816 640.214 C 962.284 663.488 948.769 687.321 937.121 710.235 C 901.649 780.017 865.733 849.519 829.302 918.803 C 824.074 928.745 818.932 938.802 814.232 949.001 C 810.324 954.053 801.715 971.888 798.338 978.168 C 795.331 984.589 790.102 994.641 786.32 1000.36 C 784.912 998.121 783.753 996.687 782.024 994.671 C 784.114 991.058 785.509 987.478 787.717 984.012 C 790.576 980.645 790.906 977.438 793.732 974.318 L 794.043 972.536 C 798.959 964.883 808.241 945.322 812.338 936.646 C 815.767 931.273 821.834 918.49 824.935 912.432 C 834.433 893.591 844.029 874.798 853.721 856.055 C 891.402 784.539 928.368 712.649 964.614 640.396 z" fill="rgb(30,26,69)" transform="translate(0,0)"></path>
<path d="M 787.717 984.012 C 790.576 980.645 790.906 977.438 793.732 974.318 C 795.593 977.718 788.431 983.537 789.899 986.53 C 791.958 990.728 793.983 979.311 798.338 978.168 C 795.331 984.589 790.102 994.641 786.32 1000.36 C 784.912 998.121 783.753 996.687 782.024 994.671 C 784.114 991.058 785.509 987.478 787.717 984.012 z" fill="rgb(34,107,128)" transform="translate(0,0)"></path>
<path d="M 843.911 640.089 L 852.125 640.177 C 836.182 664.866 814.484 711.592 800.046 739.332 C 782.381 772.967 765.067 806.785 748.104 840.78 C 741.211 854.522 729.042 877.244 723.513 890.77 L 719.527 897.877 C 716.279 891.898 728.211 884.413 720.782 884.6 C 720.447 884.608 716.733 893.283 712.727 896.245 C 715.885 888.855 722.374 876.987 726.176 869.492 L 751.732 818.553 C 775.146 771.424 799.801 725.11 823.469 678.125 C 829.981 665.199 836.823 652.703 843.911 640.089 z" fill="rgb(30,26,69)" transform="translate(0,0)"></path>
<path d="M 607.442 496.05 C 608.614 496.728 609.756 497.334 610.948 497.974 C 618.54 507.789 615.878 515.257 619.375 525.877 C 624.81 542.385 635.787 562.793 655.459 562.735 C 657.247 560.154 658.718 557.403 660.394 554.748 L 660.939 554.343 C 665.134 551.6 670.781 549.119 675.294 546.552 C 689.17 538.657 703.17 531.023 717.252 523.523 C 716.345 521.054 715.496 520.479 714.311 517.929 L 715.62 517.469 C 717.487 520.187 717.64 520.421 720.806 520.973 C 723.768 523.602 728.364 533.546 730.37 537.539 C 747.371 571.376 781.368 562.73 811.657 562.993 L 956.039 562.902 C 973.428 562.869 1000.19 561.283 1016.71 564.136 C 1046.68 569.314 1054.21 615.738 1029.08 632.535 C 1013.22 644.368 991.102 640.166 972.816 640.214 C 970.893 640.224 966.276 640.138 964.614 640.396 C 930.249 641.35 886.604 641.419 852.125 640.177 L 843.911 640.089 L 724.29 639.56 C 704.354 639.563 670.815 640.859 652.17 638.768 C 640.936 637.443 629.947 634.532 619.53 630.124 C 584.892 615.507 562.143 588.969 548.087 554.738 C 548.578 553.965 549.632 552.972 549.308 552.221 C 548.516 551.835 547.487 551.977 546.633 551.928 C 545.631 550.524 549.034 550.771 549.606 548.634 C 544.178 548.599 542.09 548.149 539.768 542.57 L 538.416 539.278 C 538.303 537.138 538.609 535.896 538.105 534.021 L 538.071 533.276 C 544.477 531.709 557.789 523.532 564.946 520.236 C 566.844 518.746 587.6 507.979 590.461 506.511 C 594.055 504.481 599.208 502.022 602.196 499.351 C 604.593 496.95 604.377 497.125 607.442 496.05 z" fill="rgb(18,250,239)" transform="translate(0,0)"></path>
<path d="M 607.442 496.05 C 608.614 496.728 609.756 497.334 610.948 497.974 C 618.54 507.789 615.878 515.257 619.375 525.877 C 624.81 542.385 635.787 562.793 655.459 562.735 C 659.458 564.903 661.252 563.923 665.987 563.986 C 677.799 592.342 700.354 611.63 727.993 624.185 C 751.994 635.086 771.244 633.362 797.152 633.441 L 861.826 633.447 L 957.427 633.282 C 973.956 633.361 998.038 635.22 1014.69 632.491 C 1021.82 631.322 1031.51 621.054 1034.76 614.171 C 1038.45 606.22 1038.76 597.109 1035.62 588.926 C 1025.76 563.549 997.04 570.868 975.528 569.692 C 971.622 569.478 967.3 569.709 963.35 569.719 L 833.105 570.116 C 811.79 570.211 790.581 570.816 769.274 570.217 C 742.584 569.467 724.429 547.557 717.252 523.523 C 716.345 521.054 715.496 520.479 714.311 517.929 L 715.62 517.469 C 717.487 520.187 717.64 520.421 720.806 520.973 C 723.768 523.602 728.364 533.546 730.37 537.539 C 747.371 571.376 781.368 562.73 811.657 562.993 L 956.039 562.902 C 973.428 562.869 1000.19 561.283 1016.71 564.136 C 1046.68 569.314 1054.21 615.738 1029.08 632.535 C 1013.22 644.368 991.102 640.166 972.816 640.214 C 970.893 640.224 966.276 640.138 964.614 640.396 C 930.249 641.35 886.604 641.419 852.125 640.177 L 843.911 640.089 L 724.29 639.56 C 704.354 639.563 670.815 640.859 652.17 638.768 C 640.936 637.443 629.947 634.532 619.53 630.124 C 584.892 615.507 562.143 588.969 548.087 554.738 C 548.578 553.965 549.632 552.972 549.308 552.221 C 548.516 551.835 547.487 551.977 546.633 551.928 C 545.631 550.524 549.034 550.771 549.606 548.634 C 544.178 548.599 542.09 548.149 539.768 542.57 L 538.416 539.278 C 538.303 537.138 538.609 535.896 538.105 534.021 L 538.071 533.276 C 544.477 531.709 557.789 523.532 564.946 520.236 C 566.844 518.746 587.6 507.979 590.461 506.511 C 594.055 504.481 599.208 502.022 602.196 499.351 C 604.593 496.95 604.377 497.125 607.442 496.05 z" fill="rgb(33,90,123)" transform="translate(0,0)"></path>
<path d="M 607.442 496.05 C 608.614 496.728 609.756 497.334 610.948 497.974 C 610.129 500.476 610.128 500.506 609.934 503.16 C 610.318 504.088 613.796 511.598 612.736 512.488 C 596.613 526.031 565.627 536.65 549.606 548.634 C 544.178 548.599 542.09 548.149 539.768 542.57 L 538.416 539.278 C 538.303 537.138 538.609 535.896 538.105 534.021 L 538.071 533.276 C 544.477 531.709 557.789 523.532 564.946 520.236 C 566.844 518.746 587.6 507.979 590.461 506.511 C 594.055 504.481 599.208 502.022 602.196 499.351 C 604.593 496.95 604.377 497.125 607.442 496.05 z" fill="rgb(18,250,239)" transform="translate(0,0)"></path>
<path d="M 538.071 533.276 C 544.477 531.709 557.789 523.532 564.946 520.236 L 563.438 526.053 C 554.83 530.13 547.88 535.245 538.416 539.278 C 538.303 537.138 538.609 535.896 538.105 534.021 L 538.071 533.276 z" fill="rgb(139,123,255)" transform="translate(0,0)"></path>
<path d="M 564.946 520.236 C 566.844 518.746 587.6 507.979 590.461 506.511 C 589.611 509.78 589.072 508.923 591 511.726 L 589.211 512.632 L 587.633 513.406 C 579.571 517.459 571.422 522.013 563.438 526.053 L 564.946 520.236 z" fill="rgb(67,152,243)" transform="translate(0,0)"></path>
<path d="M 607.442 496.05 C 608.614 496.728 609.756 497.334 610.948 497.974 C 610.129 500.476 610.128 500.506 609.934 503.16 C 602.852 503.314 598.851 508.665 591 511.726 C 589.072 508.923 589.611 509.78 590.461 506.511 C 594.055 504.481 599.208 502.022 602.196 499.351 C 604.593 496.95 604.377 497.125 607.442 496.05 z" fill="rgb(97,182,219)" transform="translate(0,0)"></path>
<path d="M 607.902 522.728 C 618.769 527.089 613.433 562.065 659.904 570.663 C 681.39 604.323 693.462 615.57 729.86 633.771 C 713.077 632.767 692.93 633.233 675.891 633.211 C 653.877 633.361 640.826 632.563 620.319 623.064 C 589.927 609.33 566.268 584.042 554.585 552.804 C 572.297 542.298 589.037 534.323 607.902 522.728 z" fill="rgb(18,250,239)" transform="translate(0,0)"></path>
<path d="M 660.394 554.748 L 660.939 554.343 C 663.743 557.341 664.452 560.06 665.987 563.986 C 661.252 563.923 659.458 564.903 655.459 562.735 C 657.247 560.154 658.718 557.403 660.394 554.748 z" fill="rgb(34,107,128)" transform="translate(0,0)"></path>
<path d="M 712.727 896.245 C 716.733 893.283 720.447 884.608 720.782 884.6 C 728.211 884.413 716.279 891.898 719.527 897.877 C 716.73 905.775 706.51 921.265 704.445 927.188 C 702.044 930.646 696.295 939.387 695.091 943.068 L 694.991 943.692 C 699.066 944.953 700.537 945.011 703.38 947.94 C 704.412 950.533 704.583 950.489 704.542 953.224 C 703.481 956.844 703.159 960.053 700.256 962.1 C 697.31 962.69 693.376 960.687 690.537 959.382 L 687.857 959.055 C 680.444 971.095 674.393 986.92 667.579 998.908 C 665.183 998.679 663.086 998.389 660.703 998.041 C 627.45 997.439 600.918 1000.73 569.197 1012.21 C 563.238 1014.36 547.847 1022.46 544.059 1023.47 C 505.665 1047.06 484.883 1063.35 458.26 1101.21 L 456.851 1100.81 C 461.407 1093.07 467.408 1086.42 472.646 1078.8 C 462.462 1083.82 452.132 1092.59 442.428 1097.63 C 414.31 1112.26 399.882 1123.33 385.254 1151.77 C 373.147 1175.31 366.934 1190.5 365.012 1217.63 C 364.565 1223.94 363.448 1237.57 361.096 1243.07 L 360.487 1241.67 C 360.344 1245.17 360.282 1249.11 359.946 1252.55 C 360.563 1261.41 362.311 1268.04 363.208 1276.16 C 364.823 1280.26 364.892 1280.22 365.292 1284.55 C 364.207 1285.89 364.799 1285.64 363.913 1285.9 C 366.287 1288.17 366.075 1289.18 367.372 1292.38 C 368.816 1300.25 372.466 1309.46 373.19 1316.93 C 369.854 1319.58 369.096 1320.07 365.327 1322.04 C 363.383 1322.28 361.445 1322.31 359.484 1322.39 C 328.025 1304.83 319.779 1211.82 333 1181.29 C 334.924 1176.84 332.943 1170.68 335.813 1165.55 C 340.456 1157.23 342.164 1147.01 347.683 1139.07 C 351.634 1132.72 360.666 1127.15 361.999 1124.25 C 367.313 1112.68 371.6 1099.06 378.534 1088.19 C 381.026 1081.96 382.567 1076.42 389.826 1075.87 C 396.104 1078.46 398.347 1083.48 401.75 1089.22 C 405.71 1088.14 407.769 1086.33 411.648 1084.87 C 422.326 1080.83 433.53 1079 443.112 1072.55 C 468.144 1055.71 488.128 1028.44 506.594 1004.86 C 508.882 1001.94 518.757 992.628 518.803 990.517 C 518.928 984.755 513.631 987.3 516.259 976.175 C 522.066 969.388 534.449 966.108 538.814 962.535 C 546.333 956.38 545.584 954.394 556.359 948.188 C 588.792 929.508 621.333 919.718 659.09 921.734 C 669.419 922.286 683.468 926.184 693.459 928.764 C 697.132 923.653 701.833 911.645 706.23 908.802 C 708.101 904.831 710.601 900.109 712.727 896.245 z" fill="url(#Gradient3)" transform="translate(0,0)"></path>
<path d="M 380.14 1088.23 C 382.463 1084.04 385.867 1076.35 393.166 1080 C 395.552 1081.19 398.356 1085.61 399.15 1088.17 C 379.117 1123.62 371.66 1143.58 363.899 1183.07 C 361.425 1200.12 356.142 1236.44 359.946 1252.55 C 360.563 1261.41 362.311 1268.04 363.208 1276.16 C 364.823 1280.26 364.892 1280.22 365.292 1284.55 C 364.207 1285.89 364.799 1285.64 363.913 1285.9 C 366.287 1288.17 366.075 1289.18 367.372 1292.38 C 368.816 1300.25 372.466 1309.46 373.19 1316.93 C 369.854 1319.58 369.096 1320.07 365.327 1322.04 C 363.383 1322.28 361.445 1322.31 359.484 1322.39 C 328.025 1304.83 319.779 1211.82 333 1181.29 C 334.924 1176.84 332.943 1170.68 335.813 1165.55 C 340.456 1157.23 342.164 1147.01 347.683 1139.07 C 351.634 1132.72 360.666 1127.15 361.999 1124.25 C 367.313 1112.68 371.6 1099.06 378.534 1088.19 L 380.14 1088.23 z" fill="rgb(30,26,69)" transform="translate(0,0)"></path>
<path d="M 380.14 1088.23 C 382.463 1084.04 385.867 1076.35 393.166 1080 C 395.552 1081.19 398.356 1085.61 399.15 1088.17 C 379.117 1123.62 371.66 1143.58 363.899 1183.07 C 361.425 1200.12 356.142 1236.44 359.946 1252.55 C 360.563 1261.41 362.311 1268.04 363.208 1276.16 L 356.081 1277.9 L 355.381 1278.05 C 351.723 1279.8 350.617 1280.73 347.414 1278.51 C 345.421 1272.04 344.761 1253.88 344.458 1246.32 C 341.974 1184.31 354.351 1143.17 380.14 1088.23 z" fill="rgb(55,224,176)" transform="translate(0,0)"></path>
<path d="M 355.381 1278.05 C 345.527 1266.43 351.562 1209.58 352.255 1192.51 C 352.936 1175.74 378.607 1082.02 393.473 1086.3 C 373.903 1122.37 367.067 1140.85 358.967 1181.58 C 354.601 1210.04 351.471 1235.31 356.187 1263.9 C 356.88 1268.1 357.87 1274.01 356.081 1277.9 L 355.381 1278.05 z" fill="rgb(238,240,255)" transform="translate(0,0)"></path>
<path d="M 363.913 1285.9 C 366.287 1288.17 366.075 1289.18 367.372 1292.38 C 368.816 1300.25 372.466 1309.46 373.19 1316.93 C 370.778 1317.48 369.22 1317.72 366.967 1318.66 C 365.035 1320.42 359.796 1320.75 358.633 1319.78 C 354.878 1316.66 351.546 1295.85 351.093 1291.76 C 356.142 1289.16 358.674 1288.15 363.913 1285.9 z" fill="rgb(55,224,176)" transform="translate(0,0)"></path>
<path d="M 360.987 1293.1 C 363.836 1292.37 364.441 1292.48 367.372 1292.38 C 368.816 1300.25 372.466 1309.46 373.19 1316.93 C 370.778 1317.48 369.22 1317.72 366.967 1318.66 L 366.189 1317.74 C 366.125 1312.78 362.878 1297.47 360.987 1293.1 z" fill="rgb(18,250,239)" transform="translate(0,0)"></path>
<path d="M 366.189 1317.74 C 360.769 1314.03 359.807 1308.69 358.767 1302.03 C 358.203 1298.42 355.006 1292.89 359.498 1293.08 L 360.987 1293.1 C 362.878 1297.47 366.125 1312.78 366.189 1317.74 z" fill="rgb(238,240,255)" transform="translate(0,0)"></path>
<path d="M 712.727 896.245 C 716.733 893.283 720.447 884.608 720.782 884.6 C 728.211 884.413 716.279 891.898 719.527 897.877 C 716.73 905.775 706.51 921.265 704.445 927.188 C 702.044 930.646 696.295 939.387 695.091 943.068 L 694.991 943.692 C 699.066 944.953 700.537 945.011 703.38 947.94 C 704.412 950.533 704.583 950.489 704.542 953.224 C 703.481 956.844 703.159 960.053 700.256 962.1 C 697.31 962.69 693.376 960.687 690.537 959.382 L 687.857 959.055 C 685.502 958.17 684.823 958.074 682.316 957.595 L 671.903 956.632 C 628.36 954.056 566.12 962.261 530.264 988.426 C 521.344 991.328 518.788 984.188 517.324 977.169 L 516.259 976.175 C 522.066 969.388 534.449 966.108 538.814 962.535 C 546.333 956.38 545.584 954.394 556.359 948.188 C 588.792 929.508 621.333 919.718 659.09 921.734 C 669.419 922.286 683.468 926.184 693.459 928.764 C 697.132 923.653 701.833 911.645 706.23 908.802 C 708.101 904.831 710.601 900.109 712.727 896.245 z" fill="rgb(55,224,176)" transform="translate(0,0)"></path>
<path d="M 712.727 896.245 C 716.733 893.283 720.447 884.608 720.782 884.6 C 728.211 884.413 716.279 891.898 719.527 897.877 C 716.73 905.775 706.51 921.265 704.445 927.188 C 702.044 930.646 696.295 939.387 695.091 943.068 C 692.941 942.833 690.792 942.58 688.646 942.309 C 636.388 933.344 566.124 945.751 521.396 974.313 L 517.324 977.169 L 516.259 976.175 C 522.066 969.388 534.449 966.108 538.814 962.535 C 546.333 956.38 545.584 954.394 556.359 948.188 C 588.792 929.508 621.333 919.718 659.09 921.734 C 669.419 922.286 683.468 926.184 693.459 928.764 C 697.132 923.653 701.833 911.645 706.23 908.802 C 708.101 904.831 710.601 900.109 712.727 896.245 z" fill="rgb(30,26,69)" transform="translate(0,0)"></path>
<path d="M 712.727 896.245 C 716.733 893.283 720.447 884.608 720.782 884.6 C 728.211 884.413 716.279 891.898 719.527 897.877 C 716.73 905.775 706.51 921.265 704.445 927.188 C 702.044 930.646 696.295 939.387 695.091 943.068 C 692.941 942.833 690.792 942.58 688.646 942.309 C 694.026 931.151 701.955 920.708 706.23 908.802 C 708.101 904.831 710.601 900.109 712.727 896.245 z" fill="rgb(42,71,136)" transform="translate(0,0)"></path>
<path d="M 521.926 979.029 C 581.466 950.378 618.724 940.987 686.212 947.358 C 692.438 948.932 697.538 948.91 701.142 953.948 C 696.434 954.349 692.064 953.891 687.349 953.587 C 640.197 944.494 575.334 954.601 533.133 980.262 C 531.261 981.4 528.397 984.162 526.762 985.788 C 523.473 983.457 523.506 982.948 521.926 979.029 z" fill="rgb(238,240,255)" transform="translate(0,0)"></path>
<path d="M 671.903 956.632 L 682.316 957.595 C 684.823 958.074 685.502 958.17 687.857 959.055 C 680.444 971.095 674.393 986.92 667.579 998.908 C 665.183 998.679 663.086 998.389 660.703 998.041 C 627.45 997.439 600.918 1000.73 569.197 1012.21 C 563.238 1014.36 547.847 1022.46 544.059 1023.47 C 544.186 1022.91 544.801 1021.84 545.096 1021.27 C 556.021 1014.89 568.359 1011.87 579.169 1006.24 C 607.795 991.333 635.908 978.798 668.647 977.766 C 671.154 971.076 675.83 966.135 677.28 961.871 C 676.048 957.989 676.587 959.28 671.903 956.632 z" fill="rgb(15,144,133)" transform="translate(0,0)"></path>
<path d="M 682.316 957.595 C 684.823 958.074 685.502 958.17 687.857 959.055 C 680.444 971.095 674.393 986.92 667.579 998.908 C 665.183 998.679 663.086 998.389 660.703 998.041 C 666.165 983.458 674.492 970.917 682.316 957.595 z" fill="rgb(30,142,157)" transform="translate(0,0)"></path>
<path d="M 595.199 441.799 C 577.523 408.169 614.836 372.987 647.034 383.852 C 653.003 385.893 658.285 389.556 662.289 394.431 C 671.046 404.906 709.742 481.682 713.462 495.371 C 725.841 500.46 727.92 510.087 720.806 520.973 C 717.64 520.421 717.487 520.187 715.62 517.469 L 714.311 517.929 C 715.496 520.479 716.345 521.054 717.252 523.523 C 703.17 531.023 689.17 538.657 675.294 546.552 C 670.781 549.119 665.134 551.6 660.939 554.343 L 660.394 554.748 C 655.185 550.611 657.468 557.561 649.26 552.575 C 643.902 549.174 641.851 547.621 640.594 541.423 C 638.822 529.649 620.82 496.051 614.583 483.209 C 608.031 469.448 601.57 455.644 595.199 441.799 z" fill="rgb(238,240,255)" transform="translate(0,0)"></path>
<path d="M 595.199 441.799 C 577.523 408.169 614.836 372.987 647.034 383.852 C 653.003 385.893 658.285 389.556 662.289 394.431 C 671.046 404.906 709.742 481.682 713.462 495.371 L 713.408 496.558 C 711.129 497.441 710.675 497.629 708.288 498.175 C 702.995 483.122 671.708 421.08 660.753 411.863 C 642.383 403.297 620.025 407.145 610.507 427.06 C 607.256 433.864 607.222 438.178 606.337 445.366 C 602.654 441.632 600.669 441.179 600.219 435.987 C 599.524 435.89 598.828 435.794 598.133 435.697 C 596.086 438.287 595.468 438.527 595.199 441.799 z" fill="rgb(34,107,128)" transform="translate(0,0)"></path>
<path d="M 598.133 435.697 C 597.304 429.741 596.206 426.268 597.34 419.546 C 602.56 388.603 647.978 374.492 663.021 405.201 C 664.131 407.466 659.28 405.271 659.276 405.269 C 659.697 407.692 660.15 409.467 660.753 411.863 C 642.383 403.297 620.025 407.145 610.507 427.06 C 607.256 433.864 607.222 438.178 606.337 445.366 C 602.654 441.632 600.669 441.179 600.219 435.987 C 599.524 435.89 598.828 435.794 598.133 435.697 z" fill="rgb(18,250,239)" transform="translate(0,0)"></path>
<path d="M 600.219 435.987 C 605.092 419.697 611.13 407.846 628.595 402.332 C 637.853 399.409 649.132 399.547 657.693 404.412 L 659.276 405.269 C 659.697 407.692 660.15 409.467 660.753 411.863 C 642.383 403.297 620.025 407.145 610.507 427.06 C 607.256 433.864 607.222 438.178 606.337 445.366 C 602.654 441.632 600.669 441.179 600.219 435.987 z" fill="url(#Gradient2)" transform="translate(0,0)"></path>
<path d="M 713.462 495.371 C 725.841 500.46 727.92 510.087 720.806 520.973 C 717.64 520.421 717.487 520.187 715.62 517.469 L 714.311 517.929 C 715.496 520.479 716.345 521.054 717.252 523.523 C 703.17 531.023 689.17 538.657 675.294 546.552 C 670.781 549.119 665.134 551.6 660.939 554.343 L 660.394 554.748 C 655.185 550.611 657.468 557.561 649.26 552.575 C 643.902 549.174 641.851 547.621 640.594 541.423 C 644.366 539.259 645.117 538.533 646.131 534.284 L 646.182 533.229 C 650.392 532.132 651.246 531.246 655.124 528.924 C 659.761 526.721 665.518 523.529 670.035 520.951 C 676.846 517.032 703.442 502.326 708.288 498.175 C 710.675 497.629 711.129 497.441 713.408 496.558 L 713.462 495.371 z" fill="rgb(18,250,239)" transform="translate(0,0)"></path>
<path d="M 655.037 549.944 C 674.397 541.447 693.769 528.146 713.015 518.597 L 714.311 517.929 C 715.496 520.479 716.345 521.054 717.252 523.523 C 703.17 531.023 689.17 538.657 675.294 546.552 C 670.781 549.119 665.134 551.6 660.939 554.343 L 660.394 554.748 C 655.185 550.611 657.468 557.561 649.26 552.575 C 650.729 551.518 651.876 550.451 653.703 550.179 L 655.037 549.944 z" fill="rgb(34,107,128)" transform="translate(0,0)"></path>
<path d="M 713.408 496.558 C 714.771 498.526 714.752 498.678 715.691 500.923 C 708.148 503.507 685.705 517.61 677.337 522.433 C 669.423 526.993 660.474 532.202 652.387 536.272 C 650.675 537.002 648.971 537.752 647.275 538.52 C 646.903 537.105 646.522 535.693 646.131 534.284 L 646.182 533.229 C 650.392 532.132 651.246 531.246 655.124 528.924 C 659.761 526.721 665.518 523.529 670.035 520.951 C 676.846 517.032 703.442 502.326 708.288 498.175 C 710.675 497.629 711.129 497.441 713.408 496.558 z" fill="rgb(139,123,255)" transform="translate(0,0)"></path>
<path d="M 713.462 495.371 C 725.841 500.46 727.92 510.087 720.806 520.973 C 717.64 520.421 717.487 520.187 715.62 517.469 C 722.42 512.073 720.606 508.053 715.691 500.923 C 714.752 498.678 714.771 498.526 713.408 496.558 L 713.462 495.371 z" fill="rgb(86,75,162)" transform="translate(0,0)"></path>
<path d="M 646.131 534.284 C 646.522 535.693 646.903 537.105 647.275 538.52 C 647.621 544.136 649.873 547.846 655.037 549.944 L 653.703 550.179 C 651.876 550.451 650.729 551.518 649.26 552.575 C 643.902 549.174 641.851 547.621 640.594 541.423 C 644.366 539.259 645.117 538.533 646.131 534.284 z" fill="rgb(30,142,157)" transform="translate(0,0)"></path>
<path d="M 598.133 435.697 C 598.828 435.794 599.524 435.89 600.219 435.987 C 600.669 441.179 602.654 441.632 606.337 445.366 C 606.735 453.537 640.445 518.985 646.182 533.229 L 646.131 534.284 C 645.117 538.533 644.366 539.259 640.594 541.423 C 638.822 529.649 620.82 496.051 614.583 483.209 C 608.031 469.448 601.57 455.644 595.199 441.799 C 595.468 438.527 596.086 438.287 598.133 435.697 z" fill="rgb(34,107,128)" transform="translate(0,0)"></path>
<path d="M 487.933 446.613 C 461.518 395.936 530.455 357.729 559.003 403.576 C 572.419 423.904 593.307 471.319 605.871 495.413 C 606.395 495.626 606.918 495.838 607.442 496.05 C 604.377 497.125 604.593 496.95 602.196 499.351 C 599.208 502.022 594.055 504.481 590.461 506.511 C 587.6 507.979 566.844 518.746 564.946 520.236 C 557.789 523.532 544.477 531.709 538.071 533.276 L 538.105 534.021 L 536.736 535.313 C 535.554 536.508 534.079 537.382 532.803 538.473 C 532.719 534.581 493.242 458.434 487.933 446.613 z" fill="rgb(238,240,255)" transform="translate(0,0)"></path>
<path d="M 487.933 446.613 C 461.518 395.936 530.455 357.729 559.003 403.576 C 572.419 423.904 593.307 471.319 605.871 495.413 C 606.395 495.626 606.918 495.838 607.442 496.05 C 604.377 497.125 604.593 496.95 602.196 499.351 C 593.018 478.867 579.219 458.572 570.351 438.013 C 561 416.332 542.749 400.043 518.087 412.147 C 509.182 416.576 502.404 424.366 499.249 433.798 C 497.337 439.437 497.07 445.503 498.478 451.288 C 502.892 469.58 529.237 512.876 538.071 533.276 L 538.105 534.021 L 536.736 535.313 C 535.554 536.508 534.079 537.382 532.803 538.473 C 532.719 534.581 493.242 458.434 487.933 446.613 z" fill="rgb(34,107,128)" transform="translate(0,0)"></path>
<path d="M 487.933 446.613 C 461.518 395.936 530.455 357.729 559.003 403.576 C 557.436 404.753 556.565 405.5 555.102 406.803 C 552.696 406.606 551.745 406.302 549.388 405.354 C 527.777 396.666 501.535 405.961 494.071 429.005 C 492.847 432.782 492.35 436.425 490.379 439.872 C 489.588 442.529 488.923 444.079 487.933 446.613 z" fill="rgb(18,250,239)" transform="translate(0,0)"></path>
<path d="M 487.933 446.613 C 461.518 395.936 530.455 357.729 559.003 403.576 C 557.436 404.753 556.565 405.5 555.102 406.803 C 550.199 398.932 542.61 392.468 533.474 390.241 C 523.897 387.993 513.817 389.72 505.534 395.028 C 488.872 405.525 484.487 421.712 490.379 439.872 C 489.588 442.529 488.923 444.079 487.933 446.613 z" fill="rgb(33,90,123)" transform="translate(0,0)"></path>
<path d="M 798.338 978.168 C 801.715 971.888 810.324 954.053 814.232 949.001 C 814.903 953.841 808.176 963.452 805.851 968.135 C 802.711 974.459 798.076 982.612 795.436 988.998 C 795.709 988.336 803.102 1000.41 803.695 1001.59 L 804.436 1003.03 C 806.145 1006.64 812.528 1015.66 813.538 1018.7 C 817.237 1029.82 824.352 1021.63 832.647 1019.26 C 840.68 1016.96 845.599 1012.34 854.344 1012.6 L 850.381 1014.41 C 846.985 1015.94 843.165 1017.47 839.677 1018.96 C 840.299 1021.44 840.544 1023 840.938 1025.49 C 830.038 1030.47 800.665 1044.78 790.613 1045.03 L 789.95 1045.27 C 784.47 1041.4 780.039 1038.21 774.236 1034.77 C 771.602 1033.08 768.041 1030.95 765.294 1029.49 C 767.586 1023.7 779.053 1001.31 779.595 998.111 C 780.473 996.79 781.067 995.939 782.024 994.671 C 783.753 996.687 784.912 998.121 786.32 1000.36 C 790.102 994.641 795.331 984.589 798.338 978.168 z" fill="url(#Gradient1)" transform="translate(0,0)"></path>
<path d="M 839.677 1018.96 C 840.299 1021.44 840.544 1023 840.938 1025.49 C 830.038 1030.47 800.665 1044.78 790.613 1045.03 C 796.609 1033.73 827.77 1024.11 839.677 1018.96 z" fill="rgb(34,107,128)" transform="translate(0,0)"></path>
<path d="M 779.595 998.111 C 780.473 996.79 781.067 995.939 782.024 994.671 C 783.753 996.687 784.912 998.121 786.32 1000.36 C 780.718 1009.22 776.066 1024.25 774.236 1034.77 C 771.602 1033.08 768.041 1030.95 765.294 1029.49 C 767.586 1023.7 779.053 1001.31 779.595 998.111 z" fill="rgb(30,142,157)" transform="translate(0,0)"></path>
<path d="M 538.105 534.021 C 538.609 535.896 538.303 537.138 538.416 539.278 L 539.768 542.57 C 542.09 548.149 544.178 548.599 549.606 548.634 C 549.034 550.771 545.631 550.524 546.633 551.928 C 547.487 551.977 548.516 551.835 549.308 552.221 C 549.632 552.972 548.578 553.965 548.087 554.738 C 546.893 554.298 545.688 553.886 544.475 553.501 C 538.697 551.704 533.543 546.374 532.993 540.204 L 532.803 538.473 C 534.079 537.382 535.554 536.508 536.736 535.313 L 538.105 534.021 z" fill="rgb(86,75,162)" transform="translate(0,0)"></path>
<metadata><recraft-signature>{"signed_by": "recraft", "signature_b64": "5MkFLp1q/+Z69EA9tP3fRn+ISEUyVydnvHG4F2Jhd6s67E780BwKHZAc+GWLzh977TVm4nwHHpEaCaDkYOWnDQ==", "signing_algo": "Ed25519", "generation_timestamp": 1783296110, "identifier": "59cea1ba-4695-4d01-be62-da19e720d4aa"}</recraft-signature></metadata></svg>